<svg width="24" height="24" viewBox="0 0 24 24" fill="none" xmlns="http://www.w3.org/2000/svg">
<path fill-rule="evenodd" clip-rule="evenodd" d="M7.54352 19.9518C8.25751 19.9518 8.83851 20.5318 8.83851 21.2458C8.83851 21.9598 8.25751 22.5408 7.54352 22.5408C6.82951 22.5408 6.24951 21.9598 6.24951 21.2458C6.24951 20.5318 6.82951 19.9518 7.54352 19.9518ZM18.8238 19.9518C19.5388 19.9518 20.1198 20.5318 20.1198 21.2458C20.1198 21.9598 19.5388 22.5408 18.8238 22.5408C18.1098 22.5408 17.5298 21.9598 17.5298 21.2458C17.5298 20.5318 18.1098 19.9518 18.8238 19.9518ZM3.26772 3.0094L5.34772 3.3694C5.68272 3.4284 5.93772 3.7064 5.96672 4.0464L6.20172 6.8474L7.07557 6.84777C7.21816 6.84784 7.35925 6.8479 7.49884 6.84796L9.10314 6.84872C9.23102 6.84879 9.35747 6.84885 9.4825 6.84892L11.2539 6.84989C11.3652 6.84995 11.4751 6.85002 11.5838 6.85009L12.8251 6.85088C12.9234 6.85094 13.0205 6.85101 13.1164 6.85108L14.2082 6.85188C14.2944 6.85195 14.3794 6.85202 14.4633 6.85208L15.4152 6.8529C15.4901 6.85297 15.5639 6.85304 15.6366 6.85311L16.2623 6.85373C16.3287 6.8538 16.394 6.85387 16.4584 6.85394L17.1829 6.85478C17.2394 6.85485 17.295 6.85492 17.3496 6.85499L17.9614 6.85585C18.0088 6.85592 18.0554 6.85599 18.1011 6.85606L18.4899 6.85671C18.5306 6.85678 18.5706 6.85686 18.6097 6.85693L19.0428 6.85781C19.0759 6.85788 19.1083 6.85795 19.14 6.85803L19.4066 6.85869C19.4342 6.85877 19.4611 6.85884 19.4874 6.85892L19.7732 6.85982C19.7946 6.85989 19.8154 6.85997 19.8357 6.86005L20.0035 6.86073C20.0205 6.86081 20.0371 6.86088 20.0531 6.86096L20.2229 6.86188C20.2352 6.86196 20.2471 6.86204 20.2586 6.86212L20.3511 6.86282C20.3602 6.8629 20.369 6.86298 20.3774 6.86305L20.4439 6.86376C20.4504 6.86384 20.4565 6.86392 20.4624 6.864L20.5077 6.86472C20.512 6.8648 20.516 6.86488 20.5198 6.86496L20.5485 6.86569C20.5511 6.86577 20.5535 6.86585 20.5558 6.86593L20.5766 6.86691C20.5778 6.86699 20.579 6.86707 20.5801 6.86715C20.5898 6.86806 20.5913 6.86823 20.5927 6.8684C21.1497 6.9494 21.6397 7.2404 21.9737 7.6884C22.3077 8.1354 22.4477 8.6864 22.3677 9.2384L21.4187 15.7964C21.2397 17.0444 20.1557 17.9854 18.8957 17.9854H7.97472C6.65772 17.9854 5.54272 16.9574 5.43571 15.6424L4.51972 4.7484L3.01272 4.4884C2.60372 4.4164 2.33072 4.0294 2.40072 3.6204C2.47272 3.2114 2.86772 2.9454 3.26772 3.0094ZM6.87495 8.34774L6.32772 8.3474L6.93072 15.5194C6.97472 16.0714 7.42571 16.4854 7.97672 16.4854H18.8937C19.4147 16.4854 19.8597 16.0974 19.9337 15.5824L20.8837 9.0234C20.9057 8.8674 20.8667 8.7114 20.7717 8.5854C20.6777 8.4584 20.5397 8.3764 20.3837 8.3544C20.3765 8.35467 20.3592 8.35492 20.3324 8.35515L20.2236 8.35578C20.2009 8.35587 20.1759 8.35596 20.1486 8.35604L19.5821 8.3569C19.5343 8.35693 19.4846 8.35696 19.4331 8.35699L18.1011 8.35693C18.0268 8.35691 17.9511 8.35687 17.874 8.35684L16.3539 8.35592C16.2628 8.35585 16.1707 8.35578 16.0777 8.35571L15.2176 8.35502C15.1196 8.35494 15.0209 8.35486 14.9215 8.35477L14.0105 8.35397C13.9076 8.35388 13.8042 8.35378 13.7004 8.35369L13.0728 8.35311C12.9675 8.35302 12.8619 8.35292 12.756 8.35282L11.7983 8.35192C11.6915 8.35182 11.5847 8.35172 11.4778 8.35162L10.8372 8.35103C10.7306 8.35093 10.6241 8.35083 10.5178 8.35073L9.88255 8.35016C9.77721 8.35006 9.67217 8.34997 9.5675 8.34988L8.63699 8.34908C8.53507 8.34899 8.43369 8.34891 8.33293 8.34883L7.15701 8.34793C7.06211 8.34786 6.96807 8.3478 6.87495 8.34774ZM17.2876 10.5437C17.7016 10.5437 18.0376 10.8797 18.0376 11.2937C18.0376 11.7077 17.7016 12.0437 17.2876 12.0437H14.5156C14.1006 12.0437 13.7656 11.7077 13.7656 11.2937C13.7656 10.8797 14.1006 10.5437 14.5156 10.5437H17.2876Z" fill="#333333"/>
</svg>
