<svg width="24" height="24" viewBox="0 0 24 24" fill="none" xmlns="http://www.w3.org/2000/svg">
<g clip-path="url(#clip0_59_343)">
<path d="M23.9373 9.20619C23.7802 8.72021 23.3492 8.37505 22.8392 8.32909L15.9122 7.70011L13.173 1.28887C12.971 0.819008 12.5111 0.514862 12 0.514862C11.4889 0.514862 11.029 0.819008 10.827 1.28997L8.08785 7.70011L1.15969 8.32909C0.650648 8.37615 0.220706 8.72021 0.0626817 9.20619C-0.0953424 9.69216 0.0505964 10.2252 0.435677 10.5612L5.67171 15.1532L4.12773 21.9545C4.01475 22.4546 4.20885 22.9715 4.62377 23.2714C4.8468 23.4326 5.10773 23.5146 5.37086 23.5146C5.59774 23.5146 5.82278 23.4534 6.02475 23.3326L12 19.7614L17.9731 23.3326C18.4101 23.5955 18.9611 23.5715 19.3751 23.2714C19.7902 22.9706 19.9842 22.4535 19.8712 21.9545L18.3272 15.1532L23.5632 10.5621C23.9483 10.2252 24.0953 9.69308 23.9373 9.20619Z" fill="#333333"/>
</g>
<defs>
<clipPath id="clip0_59_343">
<rect width="24" height="24" fill="white"/>
</clipPath>
</defs>
</svg>
