<svg width="24" height="24" viewBox="0 0 24 24" fill="none" xmlns="http://www.w3.org/2000/svg">
<path fill-rule="evenodd" clip-rule="evenodd" d="M11.8184 0.962891C5.74841 0.962891 0.836914 5.87481 0.836914 11.9443C0.836914 18.0143 5.74884 22.9258 11.8184 22.9258C17.8883 22.9258 22.7998 18.0139 22.7998 11.9443C22.7998 5.87438 17.8878 0.962891 11.8184 0.962891ZM11.8184 21.2099C6.69685 21.2099 2.55276 17.0655 2.55276 11.9443C2.55276 6.82282 6.69719 2.67874 11.8184 2.67874C16.9399 2.67874 21.084 6.82316 21.084 11.9443C21.084 17.0659 16.9395 21.2099 11.8184 21.2099ZM11.8184 10.157C11.3445 10.157 10.9604 10.5411 10.9604 11.0149V16.5397C10.9604 17.0135 11.3445 17.3976 11.8184 17.3976C12.2922 17.3976 12.6763 17.0135 12.6763 16.5396V11.0149C12.6763 10.5411 12.2922 10.157 11.8184 10.157ZM12.9766 7.94783C12.9766 8.58749 12.458 9.10603 11.8184 9.10603C11.1787 9.10603 10.6602 8.58749 10.6602 7.94783C10.6602 7.30818 11.1787 6.78963 11.8184 6.78963C12.458 6.78963 12.9766 7.30818 12.9766 7.94783Z" fill="#333333"/>
</svg>
