<svg width="24" height="24" viewBox="0 0 24 24" fill="none" xmlns="http://www.w3.org/2000/svg">
<path fill-rule="evenodd" clip-rule="evenodd" d="M7.88453 20.106C8.40253 20.683 9.06753 21 9.75753 21H9.75853C10.4515 21 11.1195 20.683 11.6385 20.105C11.9165 19.798 12.3905 19.773 12.6975 20.05C13.0055 20.327 13.0305 20.802 12.7535 21.109C11.9455 22.006 10.8825 22.5 9.75853 22.5H9.75653C8.63553 22.499 7.57453 22.005 6.76953 21.108C6.49253 20.801 6.51753 20.326 6.82553 20.05C7.13353 19.772 7.60753 19.797 7.88453 20.106ZM9.80733 1.00003C14.2523 1.00003 17.2383 4.46203 17.2383 7.69503C17.2383 9.35803 17.6613 10.063 18.1103 10.811C18.5543 11.549 19.0573 12.387 19.0573 13.971C18.7083 18.018 14.4833 18.348 9.80733 18.348C5.13133 18.348 0.905329 18.018 0.560316 14.035C0.557329 12.387 1.06033 11.549 1.50433 10.811L1.66107 10.5472C2.047 9.88389 2.37633 9.16238 2.37633 7.69503C2.37633 4.46203 5.36233 1.00003 9.80733 1.00003ZM9.80733 2.50003C6.31233 2.50003 3.87633 5.23803 3.87633 7.69503C3.87633 9.77403 3.29933 10.735 2.78933 11.583C2.38033 12.264 2.05733 12.802 2.05733 13.971C2.22433 15.857 3.46933 16.848 9.80733 16.848C16.1103 16.848 17.3943 15.813 17.5603 13.906C17.5573 12.802 17.2343 12.264 16.8253 11.583C16.3153 10.735 15.7383 9.77403 15.7383 7.69503C15.7383 5.23803 13.3023 2.50003 9.80733 2.50003Z" fill="#333333"/>
</svg>
