<svg width="24" height="24" viewBox="0 0 24 24" fill="none" xmlns="http://www.w3.org/2000/svg">
<path fill-rule="evenodd" clip-rule="evenodd" d="M20.7261 6.47186L20.7264 6.49006C20.8287 11.8474 20.9686 19.1846 12.0352 22.281C11.9561 22.3085 11.8734 22.3222 11.7908 22.3222C11.7082 22.3222 11.6256 22.3085 11.5464 22.281C2.61361 19.1847 2.75372 11.8477 2.85601 6.49047L2.85601 6.49046C2.86706 5.91469 2.87741 5.37066 2.87741 4.84445C2.87741 4.43228 3.21156 4.09812 3.62374 4.09812C6.81534 4.09812 9.24509 3.18084 11.2705 1.21132C11.5602 0.929609 12.0213 0.929509 12.3111 1.21132C14.3367 3.18084 16.7669 4.09812 19.9587 4.09812C20.371 4.09812 20.705 4.43228 20.705 4.84445C20.705 5.36502 20.7152 5.90293 20.7261 6.47186ZM4.34847 6.51892C4.24568 11.9043 4.12985 18.0008 11.7909 20.7839C19.4525 18.0007 19.3368 11.904 19.2341 6.51842C19.2279 6.19541 19.2219 5.88235 19.2177 5.57536C16.2282 5.44928 13.8374 4.54333 11.7909 2.7607C9.74453 4.54333 7.35409 5.44918 4.36479 5.57536C4.36061 5.88245 4.35464 6.19571 4.34847 6.51892ZM10.7587 12.6706L14.3608 9.06859C14.6523 8.77712 15.1249 8.77722 15.4162 9.06869C15.7077 9.36006 15.7077 9.83263 15.4161 10.1241L11.2864 14.2538C11.1407 14.3995 10.9496 14.4723 10.7587 14.4723C10.5677 14.4723 10.3766 14.3995 10.231 14.2538L8.16611 12.1889C7.87464 11.8975 7.87464 11.425 8.16611 11.1334C8.45747 10.8421 8.93005 10.8421 9.22151 11.1334L10.7587 12.6706Z" fill="#333333"/>
</svg>
