<svg width="24" height="24" viewBox="0 0 24 24" fill="none" xmlns="http://www.w3.org/2000/svg">
<path fill-rule="evenodd" clip-rule="evenodd" d="M11.5 0.980469C5.69695 0.980469 1 5.67663 1 11.4805C1 17.2835 5.69617 21.9805 11.5 21.9805C17.3031 21.9805 22 17.2843 22 11.4805C22 5.67741 17.3038 0.980469 11.5 0.980469ZM11.5 20.3398C6.60368 20.3398 2.64062 16.3774 2.64062 11.4805C2.64062 6.58415 6.60302 2.62109 11.5 2.62109C16.3963 2.62109 20.3594 6.58349 20.3594 11.4805C20.3594 16.3768 16.397 20.3398 11.5 20.3398ZM11.5 17.5303C12.0663 17.5303 12.5254 17.0712 12.5254 16.5049C12.5254 15.9386 12.0663 15.4795 11.5 15.4795C10.9337 15.4795 10.4746 15.9386 10.4746 16.5049C10.4746 17.0712 10.9337 17.5303 11.5 17.5303ZM8.21875 9.53223C8.21875 7.72295 9.69072 6.25098 11.5 6.25098C13.3093 6.25098 14.7812 7.72295 14.7812 9.53223C14.7812 11.0584 13.734 12.3445 12.3203 12.7097V14.0439C12.3203 14.497 11.9531 14.8643 11.5 14.8643C11.0469 14.8643 10.6797 14.497 10.6797 14.0439V11.9932C10.6797 11.5401 11.0469 11.1729 11.5 11.1729C12.4046 11.1729 13.1406 10.4369 13.1406 9.53223C13.1406 8.62759 12.4046 7.8916 11.5 7.8916C10.5954 7.8916 9.85938 8.62759 9.85938 9.53223C9.85938 9.98528 9.49212 10.3525 9.03906 10.3525C8.586 10.3525 8.21875 9.98528 8.21875 9.53223Z" fill="#333333"/>
</svg>
